<svg width="33" height="33" viewBox="0 0 33 33" fill="none" xmlns="http://www.w3.org/2000/svg">
<path fill-rule="evenodd" clip-rule="evenodd" d="M16.5 3.08917C8.90312 3.08917 2.75 9.2423 2.75 16.8392C2.75 22.9235 6.68594 28.0626 12.1516 29.8845C12.8391 30.0048 13.0969 29.5923 13.0969 29.2314C13.0969 28.9048 13.0797 27.822 13.0797 26.6704C9.625 27.3064 8.73125 25.8282 8.45625 25.0548C8.30156 24.6595 7.63125 23.4392 7.04688 23.1126C6.56562 22.8548 5.87812 22.2189 7.02969 22.2017C8.1125 22.1845 8.88594 23.1985 9.14375 23.611C10.3813 25.6907 12.3578 25.1064 13.1484 24.7454C13.2688 23.8517 13.6297 23.2501 14.025 22.9064C10.9656 22.5626 7.76875 21.3767 7.76875 16.1173C7.76875 14.622 8.30156 13.3845 9.17813 12.422C9.04063 12.0782 8.55937 10.6689 9.31562 8.77823C9.31562 8.77823 10.4672 8.4173 13.0969 10.1876C14.1969 9.87824 15.3656 9.72355 16.5344 9.72355C17.7031 9.72355 18.8719 9.87824 19.9719 10.1876C22.6016 8.40011 23.7531 8.77823 23.7531 8.77823C24.5094 10.6689 24.0281 12.0782 23.8906 12.422C24.7672 13.3845 25.3 14.6048 25.3 16.1173C25.3 21.3939 22.0859 22.5626 19.0266 22.9064C19.525 23.336 19.9547 24.161 19.9547 25.4501C19.9547 27.2892 19.9375 28.7673 19.9375 29.2314C19.9375 29.5923 20.1953 30.022 20.8828 29.8845C23.6124 28.963 25.9844 27.2087 27.6647 24.8685C29.3451 22.5284 30.2493 19.7201 30.25 16.8392C30.25 9.2423 24.0969 3.08917 16.5 3.08917Z" fill="#006963"/>
</svg>
