<svg width="33" height="33" viewBox="0 0 33 33" fill="none" xmlns="http://www.w3.org/2000/svg">
<path fill-rule="evenodd" clip-rule="evenodd" d="M16.5 4.125C13.1389 4.125 12.7182 4.13903 11.3982 4.19925C10.0807 4.25948 9.1806 4.46902 8.39355 4.7751C7.56855 5.0853 6.82027 5.57205 6.20152 6.20235C5.57223 6.82039 5.08518 7.56813 4.77427 8.39355C4.46985 9.1806 4.25948 10.0815 4.19925 11.399C4.13985 12.7182 4.125 13.1381 4.125 16.5C4.125 19.8619 4.13903 20.2818 4.19925 21.6018C4.25948 22.9193 4.46902 23.8194 4.7751 24.6064C5.0853 25.4314 5.57205 26.1797 6.20235 26.7985C6.8204 27.4277 7.56815 27.9148 8.39355 28.2257C9.1806 28.531 10.0807 28.7405 11.3982 28.8007C12.7182 28.861 13.1389 28.875 16.5 28.875C19.861 28.875 20.2818 28.861 21.6018 28.8007C22.9193 28.7405 23.8194 28.531 24.6064 28.2249C25.4314 27.9147 26.1797 27.4279 26.7985 26.7976C27.4278 26.1796 27.9148 25.4319 28.2257 24.6064C28.531 23.8194 28.7405 22.9193 28.8007 21.6018C28.861 20.2818 28.875 19.861 28.875 16.5C28.875 13.1389 28.861 12.7182 28.8007 11.3982C28.7405 10.0807 28.531 9.1806 28.2249 8.39355C27.9142 7.56778 27.4271 6.81971 26.7976 6.20152C26.1796 5.57223 25.4319 5.08518 24.6064 4.77427C23.8194 4.46985 22.9185 4.25948 21.601 4.19925C20.2818 4.13985 19.8619 4.125 16.5 4.125ZM16.5 6.35498C19.8041 6.35498 20.196 6.36735 21.5011 6.42675C22.7073 6.48202 23.3623 6.6825 23.7988 6.85327C24.3763 7.07685 24.7888 7.3458 25.2219 7.7781C25.655 8.21122 25.9232 8.62372 26.1467 9.20122C26.3167 9.63765 26.518 10.2927 26.5732 11.4988C26.6326 12.804 26.645 13.1959 26.645 16.5C26.645 19.8041 26.6326 20.196 26.5732 21.5011C26.518 22.7073 26.3175 23.3623 26.1467 23.7988C25.9487 24.3363 25.6326 24.8226 25.2219 25.2219C24.8227 25.6327 24.3363 25.9488 23.7988 26.1467C23.3623 26.3167 22.7073 26.518 21.5011 26.5732C20.196 26.6326 19.8049 26.645 16.5 26.645C13.195 26.645 12.804 26.6326 11.4988 26.5732C10.2927 26.518 9.63765 26.3175 9.20122 26.1467C8.6637 25.9487 8.17741 25.6326 7.7781 25.2219C7.3674 24.8226 7.05138 24.3363 6.85327 23.7988C6.68332 23.3623 6.48202 22.7073 6.42675 21.5011C6.36735 20.196 6.35498 19.8041 6.35498 16.5C6.35498 13.1959 6.36735 12.804 6.42675 11.4988C6.48202 10.2927 6.6825 9.63765 6.85327 9.20122C7.07685 8.62372 7.3458 8.21122 7.7781 7.7781C8.17735 7.36729 8.66366 7.05125 9.20122 6.85327C9.63765 6.68332 10.2927 6.48202 11.4988 6.42675C12.804 6.36735 13.1959 6.35498 16.5 6.35498V6.35498Z" fill="#006963"/>
<path fill-rule="evenodd" clip-rule="evenodd" d="M16.5 20.6291C15.9578 20.6291 15.4208 20.5223 14.9199 20.3148C14.4189 20.1073 13.9637 19.8032 13.5803 19.4197C13.1968 19.0363 12.8927 18.5811 12.6852 18.0802C12.4777 17.5792 12.3709 17.0423 12.3709 16.5C12.3709 15.9578 12.4777 15.4208 12.6852 14.9199C12.8927 14.4189 13.1968 13.9637 13.5803 13.5803C13.9637 13.1969 14.4189 12.8927 14.9199 12.6852C15.4208 12.4777 15.9578 12.3709 16.5 12.3709C17.5951 12.3709 18.6454 12.8059 19.4197 13.5803C20.1941 14.3546 20.6291 15.4049 20.6291 16.5C20.6291 17.5951 20.1941 18.6454 19.4197 19.4197C18.6454 20.1941 17.5951 20.6291 16.5 20.6291V20.6291ZM16.5 10.1393C14.813 10.1393 13.1951 10.8094 12.0023 12.0023C10.8094 13.1952 10.1393 14.813 10.1393 16.5C10.1393 18.187 10.8094 19.8049 12.0023 20.9977C13.1951 22.1906 14.813 22.8608 16.5 22.8608C18.187 22.8608 19.8049 22.1906 20.9977 20.9977C22.1906 19.8049 22.8607 18.187 22.8607 16.5C22.8607 14.813 22.1906 13.1952 20.9977 12.0023C19.8049 10.8094 18.187 10.1393 16.5 10.1393V10.1393ZM24.7112 10.0238C24.7112 10.4225 24.5528 10.805 24.2708 11.0869C23.9889 11.3689 23.6064 11.5273 23.2077 11.5273C22.8089 11.5273 22.4265 11.3689 22.1445 11.0869C21.8625 10.805 21.7041 10.4225 21.7041 10.0238C21.7041 9.625 21.8625 9.24256 22.1445 8.96059C22.4265 8.67861 22.8089 8.5202 23.2077 8.5202C23.6064 8.5202 23.9889 8.67861 24.2708 8.96059C24.5528 9.24256 24.7112 9.625 24.7112 10.0238" fill="#006963"/>
</svg>
